<?xml version="1.0" encoding="UTF-8" standalone="no"?><!DOCTYPE svg PUBLIC "-//W3C//DTD SVG 1.1//EN" "http://www.w3.org/Graphics/SVG/1.1/DTD/svg11.dtd"><svg width="100%" height="100%" viewBox="0 0 73 34" version="1.1" xmlns="http://www.w3.org/2000/svg" xmlns:xlink="http://www.w3.org/1999/xlink" xml:space="preserve" xmlns:serif="http://www.serif.com/" style="fill-rule:evenodd;clip-rule:evenodd;stroke-linejoin:round;stroke-miterlimit:2;"><g><g><g><path d="M17.133,8.825c0.672,0 1.217,0.545 1.217,1.217c0,0.672 -0.545,1.217 -1.217,1.217c-0.672,0 -1.217,-0.545 -1.217,-1.217c0,-0.672 0.545,-1.217 1.217,-1.217Zm0,0.609c0.336,0 0.608,0.272 0.608,0.608c0,0.336 -0.272,0.609 -0.608,0.609c-0.336,0 -0.609,-0.273 -0.609,-0.609c0,-0.336 0.273,-0.608 0.609,-0.608Z" style="fill:#00ffb5;"/><path d="M21.849,8.825c0.671,0 1.216,0.545 1.216,1.217c0,0.672 -0.545,1.217 -1.216,1.217c-0.672,0 -1.217,-0.545 -1.217,-1.217c0,-0.672 0.545,-1.217 1.217,-1.217Zm0,0.609c0.335,0 0.608,0.272 0.608,0.608c0,0.336 -0.273,0.609 -0.608,0.609c-0.336,0 -0.609,-0.273 -0.609,-0.609c0,-0.336 0.273,-0.608 0.609,-0.608Z" style="fill:#00ffb5;"/><path d="M26.564,8.825c0.672,0 1.217,0.545 1.217,1.217c0,0.672 -0.545,1.217 -1.217,1.217c-0.671,0 -1.217,-0.545 -1.217,-1.217c0,-0.672 0.546,-1.217 1.217,-1.217Zm0,0.609c0.336,0 0.609,0.272 0.609,0.608c0,0.336 -0.273,0.609 -0.609,0.609c-0.336,0 -0.608,-0.273 -0.608,-0.609c0,-0.336 0.272,-0.608 0.608,-0.608Z" style="fill:#00ffb5;"/><path d="M26.564,4.063c0.672,0 1.217,0.546 1.217,1.217c0,0.672 -0.545,1.217 -1.217,1.217c-0.671,0 -1.217,-0.545 -1.217,-1.217c0,-0.671 0.546,-1.217 1.217,-1.217Zm0,0.609c0.336,0 0.609,0.273 0.609,0.608c0,0.336 -0.273,0.609 -0.609,0.609c-0.336,0 -0.608,-0.273 -0.608,-0.609c0,-0.335 0.272,-0.608 0.608,-0.608Z" style="fill:#00ffb5;"/><path d="M31.28,8.825c0.671,0 1.217,0.545 1.217,1.217c0,0.672 -0.546,1.217 -1.217,1.217c-0.672,0 -1.217,-0.545 -1.217,-1.217c0,-0.672 0.545,-1.217 1.217,-1.217Zm0,0.609c0.336,0 0.608,0.272 0.608,0.608c0,0.336 -0.272,0.609 -0.608,0.609c-0.336,0 -0.609,-0.273 -0.609,-0.609c0,-0.336 0.273,-0.608 0.609,-0.608Z" style="fill:#00ffb5;"/><path d="M31.28,4.063c0.671,0 1.217,0.546 1.217,1.217c0,0.672 -0.546,1.217 -1.217,1.217c-0.672,0 -1.217,-0.545 -1.217,-1.217c0,-0.671 0.545,-1.217 1.217,-1.217Zm0,0.609c0.336,0 0.608,0.273 0.608,0.608c0,0.336 -0.272,0.609 -0.608,0.609c-0.336,0 -0.609,-0.273 -0.609,-0.609c0,-0.335 0.273,-0.608 0.609,-0.608Z" style="fill:#00ffb5;"/><path d="M35.995,8.825c0.672,0 1.217,0.545 1.217,1.217c0,0.672 -0.545,1.217 -1.217,1.217c-0.671,0 -1.216,-0.545 -1.216,-1.217c0,-0.672 0.545,-1.217 1.216,-1.217Zm0,0.609c0.336,0 0.609,0.272 0.609,0.608c0,0.336 -0.273,0.609 -0.609,0.609c-0.335,0 -0.608,-0.273 -0.608,-0.609c0,-0.336 0.273,-0.608 0.608,-0.608Z" style="fill:#00ffb5;"/><path d="M40.711,8.825c0.672,0 1.217,0.545 1.217,1.217c0,0.672 -0.545,1.217 -1.217,1.217c-0.671,0 -1.217,-0.545 -1.217,-1.217c0,-0.672 0.546,-1.217 1.217,-1.217Zm0,0.609c0.336,0 0.609,0.272 0.609,0.608c0,0.336 -0.273,0.609 -0.609,0.609c-0.336,0 -0.608,-0.273 -0.608,-0.609c0,-0.336 0.272,-0.608 0.608,-0.608Z" style="fill:#00ffb5;"/><path d="M45.427,8.825c0.671,0 1.217,0.545 1.217,1.217c0,0.672 -0.546,1.217 -1.217,1.217c-0.672,0 -1.217,-0.545 -1.217,-1.217c0,-0.672 0.545,-1.217 1.217,-1.217Zm0,0.609c0.336,0 0.608,0.272 0.608,0.608c0,0.336 -0.272,0.609 -0.608,0.609c-0.336,0 -0.609,-0.273 -0.609,-0.609c0,-0.336 0.273,-0.608 0.609,-0.608Z" style="fill:#00ffb5;"/><path d="M50.142,8.777c0.672,0 1.217,0.545 1.217,1.217c0,0.672 -0.545,1.217 -1.217,1.217c-0.671,0 -1.216,-0.545 -1.216,-1.217c0,-0.672 0.545,-1.217 1.216,-1.217Zm0,0.609c0.336,0 0.609,0.272 0.609,0.608c0,0.336 -0.273,0.609 -0.609,0.609c-0.335,0 -0.608,-0.273 -0.608,-0.609c0,-0.336 0.273,-0.608 0.608,-0.608Z" style="fill:#00ffb5;"/><path d="M53.641,9.927l0.182,-0.532c0.418,0.139 0.721,0.261 0.911,0.363c-0.05,-0.452 -0.077,-0.763 -0.079,-0.933l0.572,0c-0.008,0.247 -0.038,0.557 -0.091,0.929c0.271,-0.13 0.581,-0.249 0.931,-0.359l0.181,0.532c-0.334,0.105 -0.661,0.175 -0.982,0.209c0.16,0.133 0.387,0.369 0.678,0.709l-0.473,0.318c-0.152,-0.197 -0.332,-0.466 -0.54,-0.805c-0.195,0.352 -0.366,0.62 -0.513,0.805l-0.465,-0.318c0.305,-0.358 0.523,-0.594 0.654,-0.709c-0.339,-0.062 -0.661,-0.132 -0.966,-0.209Z" style="fill:#00ffb5;fill-rule:nonzero;"/><path d="M45.427,4.063c0.671,0 1.217,0.546 1.217,1.217c0,0.672 -0.546,1.217 -1.217,1.217c-0.672,0 -1.217,-0.545 -1.217,-1.217c0,-0.671 0.545,-1.217 1.217,-1.217Zm0,0.609c0.336,0 0.608,0.273 0.608,0.608c0,0.336 -0.272,0.609 -0.608,0.609c-0.336,0 -0.609,-0.273 -0.609,-0.609c0,-0.335 0.273,-0.608 0.609,-0.608Z" style="fill:#00ffb5;"/><path d="M50.142,4.015c0.672,0 1.217,0.546 1.217,1.217c0,0.672 -0.545,1.217 -1.217,1.217c-0.671,0 -1.216,-0.545 -1.216,-1.217c0,-0.671 0.545,-1.217 1.216,-1.217Zm0,0.609c0.336,0 0.609,0.273 0.609,0.608c0,0.336 -0.273,0.609 -0.609,0.609c-0.335,0 -0.608,-0.273 -0.608,-0.609c0,-0.335 0.273,-0.608 0.608,-0.608Z" style="fill:#00ffb5;"/></g><path d="M57.535,0.175c1.925,0.018 3.688,1.665 3.707,3.707c0.008,2.511 0.024,5.023 0,7.535c-0.03,1.909 -1.673,3.65 -3.683,3.682c-14.317,0.137 -28.637,0.137 -42.954,0c-1.918,-0.03 -3.651,-1.669 -3.683,-3.682c-0.024,-2.52 -0.024,-5.04 0,-7.559c0.03,-1.909 1.673,-3.651 3.683,-3.683c14.309,-0.136 28.62,-0.046 42.93,0Zm-42.881,0.634c-1.599,0.005 -3.072,1.386 -3.098,3.057c-0.024,2.514 -0.024,5.028 0,7.543c0.025,1.594 1.403,3.041 3.077,3.057c14.306,0.046 28.613,0.137 42.918,0c1.595,-0.026 3.042,-1.406 3.057,-3.077c0.008,-2.508 0.024,-5.016 0,-7.523c-0.025,-1.597 -1.4,-3.041 -3.077,-3.057c-14.292,-0.046 -28.585,0 -42.877,0Z" style="fill:#00ffb5;"/></g><path d="M4.039,31.2c1.901,0 3.211,-0.972 3.722,-2.51l-1.396,-0.366c-0.321,1.02 -1.091,1.637 -2.326,1.637c-1.665,0 -2.504,-1.135 -2.504,-2.854c0.006,-1.718 0.839,-2.853 2.504,-2.853c1.235,0 2.005,0.616 2.326,1.637l1.396,-0.366c-0.511,-1.539 -1.821,-2.51 -3.722,-2.51c-2.475,0 -3.957,1.653 -3.957,4.092c0,2.439 1.482,4.093 3.957,4.093Z" style="fill:#fff;fill-rule:nonzero;"/><path d="M12.051,31.2c1.856,0 3.096,-1.272 3.096,-3.11c0,-1.823 -1.223,-3.111 -3.096,-3.111c-1.832,0 -3.084,1.261 -3.084,3.111c0,1.822 1.218,3.11 3.084,3.11Zm0,-1.233c-1.068,0 -1.619,-0.732 -1.619,-1.877c0,-1.114 0.505,-1.877 1.619,-1.877c1.086,0 1.632,0.736 1.632,1.877c0,1.107 -0.535,1.877 -1.632,1.877Z" style="fill:#fff;fill-rule:nonzero;"/><path d="M19.949,24.974c-0.896,0 -1.574,0.316 -2.028,0.824l0,-0.655l-1.235,0l0,5.893l1.402,0l0,-3.028c0,-1.43 0.746,-1.795 1.453,-1.795c1.321,0 1.447,1.26 1.447,1.986l0,2.837l1.402,0l0,-3.29c0,-0.699 -0.155,-2.772 -2.441,-2.772Z" style="fill:#fff;fill-rule:nonzero;"/><path d="M25.847,31.036l1.39,0l2.252,-5.893l-1.39,0l-1.557,4.272l-1.562,-4.272l-1.384,0l2.251,5.893Z" style="fill:#fff;fill-rule:nonzero;"/><path d="M33.319,31.2c1.856,0 3.096,-1.272 3.096,-3.11c0,-1.823 -1.223,-3.111 -3.096,-3.111c-1.832,0 -3.084,1.261 -3.084,3.111c0,1.822 1.218,3.11 3.084,3.11Zm0,-1.233c-1.068,0 -1.619,-0.732 -1.619,-1.877c0,-1.114 0.505,-1.877 1.619,-1.877c1.086,0 1.632,0.736 1.632,1.877c0,1.107 -0.535,1.877 -1.632,1.877Z" style="fill:#fff;fill-rule:nonzero;"/><path d="M41.027,31.2c1.7,0 3.245,-0.819 3.245,-2.45c0,-1.561 -1.413,-1.954 -2.217,-2.161l-1.482,-0.393c-0.557,-0.142 -1.194,-0.354 -1.194,-0.938c0,-0.611 0.723,-1.021 1.551,-1.004c0.85,0.022 1.613,0.485 1.791,1.315l1.488,-0.246c-0.368,-1.457 -1.562,-2.281 -3.262,-2.297c-1.683,-0.011 -3.021,0.78 -3.021,2.297c0,1.386 1.108,1.806 1.843,2.008l2.137,0.6c0.626,0.18 0.919,0.47 0.919,0.906c0,0.726 -0.827,1.13 -1.712,1.13c-0.999,0 -1.832,-0.53 -2.073,-1.463l-1.436,0.208c0.259,1.544 1.614,2.488 3.423,2.488Z" style="fill:#fff;fill-rule:nonzero;"/><path d="M48.499,31.2c1.385,0 2.378,-0.666 2.763,-1.866l-1.413,-0.301c-0.212,0.606 -0.614,0.934 -1.35,0.934c-1.039,0 -1.568,-0.753 -1.573,-1.877c0.005,-1.081 0.488,-1.877 1.573,-1.877c0.632,0 1.172,0.371 1.385,1.004l1.378,-0.355c-0.293,-1.162 -1.338,-1.883 -2.745,-1.883c-1.884,0 -3.05,1.305 -3.056,3.111c0.006,1.778 1.12,3.11 3.038,3.11Z" style="fill:#fff;fill-rule:nonzero;"/><path d="M54.547,25.454c-0.258,0.153 -0.465,0.377 -0.62,0.633l0,-0.944l-1.223,0l0,5.893l1.39,0l0,-2.996c0,-0.682 0.252,-1.233 0.821,-1.527c0.385,-0.213 0.907,-0.24 1.281,-0.142l0,-1.228c-0.557,-0.082 -1.189,0.011 -1.649,0.311Z" style="fill:#fff;fill-rule:nonzero;"/><path d="M57.689,24.248l1.384,0l0,-1.206l-1.384,0l0,1.206Zm0,6.788l1.384,0l0,-5.893l-1.384,0l0,5.893Z" style="fill:#fff;fill-rule:nonzero;"/><path d="M64.012,24.979c-0.706,0 -1.28,0.213 -1.717,0.59l0,-0.426l-1.223,0l0,8.512l1.395,0l0,-2.919c0.42,0.294 0.954,0.464 1.597,0.464c1.717,0 2.832,-1.343 2.832,-3.11c0,-1.79 -1.126,-3.111 -2.884,-3.111Zm-0.16,5.042c-1.115,0 -1.557,-0.791 -1.557,-1.931c0,-1.152 0.454,-1.932 1.511,-1.932c1.114,0 1.625,0.862 1.625,1.932c0,1.08 -0.5,1.931 -1.579,1.931Z" style="fill:#fff;fill-rule:nonzero;"/><path d="M70.261,26.174l1.821,0l0,-1.031l-1.821,0l0,-1.637l-1.378,0l0,1.637l-1.126,0l0,1.031l1.126,0l0,2.456c0,0.676 -0.052,1.173 0.235,1.68c0.483,0.846 1.735,0.95 2.964,0.726l0,-1.102c-0.775,0.109 -1.419,0.114 -1.694,-0.322c-0.15,-0.224 -0.127,-0.589 -0.127,-1.059l0,-2.379Z" style="fill:#fff;fill-rule:nonzero;"/></g></svg>